<svg width="68" height="68" viewBox="0 0 68 68" fill="none" xmlns="http://www.w3.org/2000/svg">
<g id="clarity:email-line">
<g clip-path="url(#clip0_348_8146)">
<path id="Vector" d="M60.444 11.3333H7.55512C6.55319 11.3333 5.5923 11.7314 4.88383 12.4398C4.17536 13.1483 3.77734 14.1092 3.77734 15.1111V52.8889C3.77734 53.8908 4.17536 54.8517 4.88383 55.5602C5.5923 56.2687 6.55319 56.6667 7.55512 56.6667H60.444C61.4459 56.6667 62.4068 56.2687 63.1153 55.5602C63.8238 54.8517 64.2218 53.8908 64.2218 52.8889V15.1111C64.2218 14.1092 63.8238 13.1483 63.1153 12.4398C62.4068 11.7314 61.4459 11.3333 60.444 11.3333ZM57.5351 52.8889H10.6907L23.9129 39.2133L21.1929 36.5878L7.55512 50.6978V17.9822L31.034 41.3478C31.7418 42.0514 32.6993 42.4463 33.6973 42.4463C34.6954 42.4463 35.6529 42.0514 36.3607 41.3478L60.444 17.3967V50.4522L46.5418 36.55L43.8785 39.2133L57.5351 52.8889ZM10.0296 15.1111H57.384L33.6973 38.6656L10.0296 15.1111Z" fill="#9E88FB"/>
</g>
<rect x="2" y="2" width="64" height="64" rx="10" stroke="#9E88FB" stroke-width="4"/>
</g>
<defs>
<clipPath id="clip0_348_8146">
<rect width="68" height="68" rx="12" fill="white"/>
</clipPath>
</defs>
</svg>
