<svg width="35" height="26" viewBox="0 0 35 26" fill="none" xmlns="http://www.w3.org/2000/svg">
<g id="Group 2147223716">
<path id="Vector" d="M22.6269 13.7317L13.9081 17.5211C13.8172 17.5606 13.694 17.5828 13.5654 17.5828C13.4369 17.5828 13.3136 17.5606 13.2227 17.5211C13.1318 17.4816 13.0808 17.428 13.0808 17.3721C13.0808 17.3163 13.1318 17.2627 13.2227 17.2232L21.1144 13.7933H0.97168C0.843215 13.7933 0.720013 13.7711 0.629175 13.7316C0.538337 13.6921 0.487305 13.6386 0.487305 13.5828C0.487305 13.5269 0.538337 13.4734 0.629175 13.4339C0.720013 13.3944 0.843215 13.3722 0.97168 13.3722H21.1144L13.2227 9.94234C13.1318 9.90284 13.0808 9.84927 13.0808 9.7934C13.0808 9.73754 13.1318 9.68396 13.2227 9.64446C13.3136 9.60496 13.4369 9.58276 13.5654 9.58276C13.694 9.58276 13.8172 9.60496 13.9081 9.64446L22.6269 13.4338C22.6719 13.4534 22.7076 13.4766 22.732 13.5021C22.7564 13.5277 22.7689 13.5551 22.7689 13.5828C22.7689 13.6104 22.7564 13.6378 22.732 13.6634C22.7076 13.6889 22.6719 13.7122 22.6269 13.7317Z" fill="#F4C300"/>
<g id="Ellipse 4179">
<mask id="path-2-inside-1_418_4454" fill="white">
<path d="M10.6013 18.0295C11.7649 20.6699 13.8081 22.8252 16.3826 24.1282C18.9572 25.4311 21.9038 25.801 24.7205 25.1749C27.5373 24.5488 30.0497 22.9654 31.8299 20.6945C33.61 18.4236 34.5477 15.6057 34.4832 12.721C34.4186 9.83623 33.3558 7.06311 31.4758 4.87414C29.5958 2.68516 27.015 1.21576 24.1731 0.716298C21.3312 0.216836 18.4041 0.718218 15.8904 2.13501C13.3767 3.55181 11.432 5.79636 10.3877 8.48622L11.2905 8.83671C12.2537 6.35571 14.0474 4.28544 16.3659 2.97866C18.6844 1.67187 21.3843 1.20942 24.0055 1.6701C26.6267 2.13078 29.0072 3.48609 30.7411 5.5051C32.4751 7.5241 33.4554 10.0819 33.515 12.7426C33.5745 15.4034 32.7097 18.0025 31.0677 20.097C29.4258 22.1916 27.1084 23.652 24.5104 24.2295C21.9124 24.807 19.1945 24.4658 16.8199 23.2641C14.4453 22.0623 12.5608 20.0744 11.4875 17.639L10.6013 18.0295Z"/>
</mask>
<path d="M10.6013 18.0295C11.7649 20.6699 13.8081 22.8252 16.3826 24.1282C18.9572 25.4311 21.9038 25.801 24.7205 25.1749C27.5373 24.5488 30.0497 22.9654 31.8299 20.6945C33.61 18.4236 34.5477 15.6057 34.4832 12.721C34.4186 9.83623 33.3558 7.06311 31.4758 4.87414C29.5958 2.68516 27.015 1.21576 24.1731 0.716298C21.3312 0.216836 18.4041 0.718218 15.8904 2.13501C13.3767 3.55181 11.432 5.79636 10.3877 8.48622L11.2905 8.83671C12.2537 6.35571 14.0474 4.28544 16.3659 2.97866C18.6844 1.67187 21.3843 1.20942 24.0055 1.6701C26.6267 2.13078 29.0072 3.48609 30.7411 5.5051C32.4751 7.5241 33.4554 10.0819 33.515 12.7426C33.5745 15.4034 32.7097 18.0025 31.0677 20.097C29.4258 22.1916 27.1084 23.652 24.5104 24.2295C21.9124 24.807 19.1945 24.4658 16.8199 23.2641C14.4453 22.0623 12.5608 20.0744 11.4875 17.639L10.6013 18.0295Z" fill="#D9D9D9" stroke="#F4C300" stroke-width="6" mask="url(#path-2-inside-1_418_4454)"/>
</g>
</g>
</svg>
