<svg width="16" height="21" viewBox="0 0 16 21" fill="none" xmlns="http://www.w3.org/2000/svg">
<g id="content">
<path id="Vector" d="M0.267811 17.8447C0.492691 19.515 1.87613 20.8235 3.55966 20.9009C4.97627 20.966 6.4153 21 8 21C9.5847 21 11.0237 20.966 12.4403 20.9009C14.1239 20.8235 15.5073 19.515 15.7322 17.8447C15.879 16.7547 16 15.6376 16 14.5C16 13.3624 15.879 12.2453 15.7322 11.1553C15.5073 9.48502 14.1239 8.17649 12.4403 8.09909C11.0237 8.03397 9.5847 8 8 8C6.4153 8 4.97627 8.03397 3.55966 8.09909C1.87613 8.17649 0.492691 9.48502 0.267811 11.1553C0.121046 12.2453 0 13.3624 0 14.5C0 15.6376 0.121046 16.7547 0.267811 17.8447Z" fill="#A6A7B2"/>
<path id="Vector 6658" d="M3.5 8V5.5C3.5 3.01472 5.51472 1 8 1C10.4853 1 12.5 3.01472 12.5 5.5V8" stroke="#A6A7B2" stroke-width="1.5" stroke-linecap="round" stroke-linejoin="round"/>
</g>
</svg>
