<svg width="25" height="26" viewBox="0 0 25 26" fill="none" xmlns="http://www.w3.org/2000/svg">
<mask id="path-1-inside-1_1005_8743" fill="white">
<path d="M0.601411 18.0295C1.765 20.6699 3.80814 22.8252 6.38268 24.1282C8.95723 25.4311 11.9039 25.801 14.7206 25.1749C17.5373 24.5488 20.0498 22.9654 21.83 20.6945C23.6101 18.4236 24.5478 15.6057 24.4832 12.721C24.4187 9.83623 23.3559 7.06311 21.4759 4.87414C19.5959 2.68516 17.0151 1.21576 14.1732 0.716298C11.3313 0.216836 8.40413 0.718218 5.89046 2.13501C3.37678 3.55181 1.43212 5.79636 0.387823 8.48622L1.2906 8.83671C2.2538 6.35571 4.04747 4.28544 6.36596 2.97866C8.68446 1.67187 11.3843 1.20942 14.0056 1.6701C16.6268 2.13078 19.0072 3.48609 20.7412 5.5051C22.4752 7.5241 23.4555 10.0819 23.5151 12.7426C23.5746 15.4034 22.7097 18.0025 21.0678 20.097C19.4259 22.1916 17.1085 23.652 14.5105 24.2295C11.9125 24.807 9.19461 24.4658 6.81997 23.2641C4.44533 22.0623 2.56084 20.0744 1.4876 17.639L0.601411 18.0295Z"/>
</mask>
<path d="M0.601411 18.0295C1.765 20.6699 3.80814 22.8252 6.38268 24.1282C8.95723 25.4311 11.9039 25.801 14.7206 25.1749C17.5373 24.5488 20.0498 22.9654 21.83 20.6945C23.6101 18.4236 24.5478 15.6057 24.4832 12.721C24.4187 9.83623 23.3559 7.06311 21.4759 4.87414C19.5959 2.68516 17.0151 1.21576 14.1732 0.716298C11.3313 0.216836 8.40413 0.718218 5.89046 2.13501C3.37678 3.55181 1.43212 5.79636 0.387823 8.48622L1.2906 8.83671C2.2538 6.35571 4.04747 4.28544 6.36596 2.97866C8.68446 1.67187 11.3843 1.20942 14.0056 1.6701C16.6268 2.13078 19.0072 3.48609 20.7412 5.5051C22.4752 7.5241 23.4555 10.0819 23.5151 12.7426C23.5746 15.4034 22.7097 18.0025 21.0678 20.097C19.4259 22.1916 17.1085 23.652 14.5105 24.2295C11.9125 24.807 9.19461 24.4658 6.81997 23.2641C4.44533 22.0623 2.56084 20.0744 1.4876 17.639L0.601411 18.0295Z" fill="#D9D9D9" stroke="#F1C038" stroke-width="6" mask="url(#path-1-inside-1_1005_8743)"/>
</svg>
