<svg width="24" height="24" viewBox="0 0 24 24" fill="none" xmlns="http://www.w3.org/2000/svg">
<g id="Group">
<path id="Vector" d="M23.9983 12.0004C23.9983 18.0612 19.5059 23.0717 13.6698 23.8848C13.1242 23.9605 12.5659 24 11.9992 24C11.345 24 10.7026 23.9479 10.0771 23.847C4.36379 22.9271 0 17.9729 0 12.0004C0 5.37295 5.37276 0 12 0C18.6272 0 24 5.37295 24 12.0004H23.9983Z" fill="#1877F7"/>
<path id="Vector_2" d="M13.6698 9.63588V12.25H16.9036L16.3915 15.7715H13.6698V23.8847C13.1242 23.9604 12.5659 23.9999 11.9992 23.9999C11.345 23.9999 10.7026 23.9478 10.0771 23.8469V15.7715H7.09473V12.25H10.0771V9.0515C10.0771 7.06712 11.6855 5.45776 13.6707 5.45776V5.45944C13.6766 5.45944 13.6816 5.45776 13.6875 5.45776H16.9044V8.50327H14.8024C14.1777 8.50327 13.6707 9.0103 13.6707 9.63504L13.6698 9.63588Z" fill="white"/>
</g>
</svg>
