<svg width="213" height="24" viewBox="0 0 213 24" fill="none" xmlns="http://www.w3.org/2000/svg">
<path d="M201.82 5.57912L200.999 6.40163L200.176 5.57838C198.077 3.47931 194.674 3.47931 192.575 5.57838C190.475 7.67744 190.475 11.0807 192.575 13.1798L200.47 21.0751C200.763 21.368 201.238 21.368 201.531 21.0751L209.432 13.1783C211.526 11.0723 211.53 7.67857 209.431 5.57912C207.328 3.47623 203.923 3.47623 201.82 5.57912ZM208.368 12.1206L201 19.4842L193.635 12.1191C192.122 10.6058 192.122 8.15232 193.635 6.63904C195.148 5.12575 197.602 5.12575 199.115 6.63904L200.473 7.99648C200.771 8.29435 201.255 8.28854 201.546 7.98363L202.881 6.63978C204.398 5.12268 206.853 5.12268 208.37 6.63978C209.884 8.15343 209.881 10.5997 208.368 12.1206Z" fill="#D79253"/>
</svg>
