<svg width="59" height="61" viewBox="0 0 59 61" fill="none" xmlns="http://www.w3.org/2000/svg">
<path d="M4.50536 41.455C7.07013 41.455 9.01233 40.7453 10.4505 39.7022L11.7855 33.0508C12.2683 30.6467 13.3703 28.4892 14.9045 26.731H13.6518C8.93869 26.731 4.85871 30.0755 3.9504 34.683C3.44067 37.2644 2.97884 39.6059 2.97884 39.6059C2.79009 40.5639 3.52747 41.4549 4.50536 41.4549V41.455ZM12.1876 46.8572C13.8166 47.9492 15.551 48.8761 17.3651 49.6242C18.3636 50.0356 19.3839 50.3925 20.4214 50.6932L20.5963 49.9843C21.4714 46.4321 24.831 42.8014 29.8614 42.9233C29.8656 42.9237 29.8695 42.9237 29.8736 42.9237C33.843 43.0243 37.2954 45.7716 38.271 49.6076L38.5489 50.7013C39.5963 50.3991 40.6262 50.0395 41.6339 49.6242C43.7 48.7711 45.641 47.6993 47.4413 46.422L43.4961 22.8352L44.2295 23.5656C46.2207 25.5502 49.4401 25.5466 51.428 23.5656C53.4127 21.5879 53.4127 18.3698 51.428 16.3916L47.718 12.6944V6.69479C47.718 5.83853 47.0216 5.14453 46.1623 5.14453H44.3839C36.1497 5.14453 29.4997 11.7872 29.4997 19.977V25.0706H25.3492C20.2569 25.0706 15.8358 28.6822 14.8363 33.6587L12.1876 46.8572Z" fill="black"/>
<path d="M55.5936 45.4504C54.9859 44.8453 54.0011 44.8453 53.3934 45.4504C50.3526 48.4807 46.7968 50.8484 42.8242 52.4884C38.8519 54.1283 34.6572 54.9595 30.3572 54.9595H28.6408C24.3409 54.9595 20.1466 54.1283 16.174 52.4884C12.2018 50.8485 8.64567 48.4807 5.60518 45.4504C4.99743 44.8453 4.0127 44.8453 3.40495 45.4504C2.79731 46.0561 2.79731 47.0375 3.40495 47.643C6.73594 50.9627 10.6315 53.5566 14.9833 55.3532C19.3353 57.1492 23.9307 58.0601 28.6409 58.0601H30.3573C35.0681 58.0601 39.663 57.1492 44.0148 55.3528C48.3665 53.5565 52.2622 50.9624 55.5935 47.643C56.2009 47.0374 56.201 46.0561 55.5936 45.4504Z" fill="black"/>
</svg>
