<svg width="53" height="53" viewBox="0 0 53 53" fill="none" xmlns="http://www.w3.org/2000/svg">
<path d="M9.25469 21.6222L14.5229 21.0657L16.1924 36.8695L10.9242 37.426L9.25469 21.6222ZM20.4978 18.6657C20.6131 18.6535 20.725 18.6187 20.8269 18.5632C20.9288 18.5078 21.0187 18.4328 21.0917 18.3425C21.1646 18.2523 21.219 18.1486 21.2519 18.0373C21.2847 17.9261 21.2953 17.8094 21.283 17.6941L21.0967 15.9371C21.0844 15.8217 21.0496 15.7099 20.9941 15.608C20.9387 15.5061 20.8637 15.4161 20.7735 15.3432C20.6833 15.2703 20.5795 15.2158 20.4683 15.183C20.357 15.1502 20.2404 15.1396 20.125 15.1518L2.56167 17.0104C2.44631 17.0226 2.33448 17.0574 2.23258 17.1129C2.13067 17.1683 2.04069 17.2433 1.96777 17.3335C1.89485 17.4238 1.84041 17.5275 1.80758 17.6387C1.77474 17.75 1.76414 17.8667 1.77639 17.982L1.96189 19.739C1.97412 19.8543 2.00895 19.9662 2.06441 20.0681C2.11986 20.17 2.19484 20.26 2.28507 20.3329C2.3753 20.4058 2.47901 20.4602 2.59028 20.4931C2.70155 20.5259 2.81819 20.5365 2.93356 20.5243L20.4978 18.6657ZM10.4127 7.29634C9.86879 7.35234 9.35596 7.57703 8.94604 7.93896C8.53613 8.30088 8.24964 8.78193 8.12667 9.31475L13.0733 8.79182C12.842 8.29559 12.4609 7.88439 11.9836 7.61612C11.5063 7.34785 10.9569 7.23601 10.4127 7.29634ZM5.00586 14.9743L17.3045 13.6731C17.4199 13.6609 17.5317 13.6261 17.6336 13.5706C17.7355 13.5152 17.8255 13.4402 17.8984 13.3499C17.9713 13.2597 18.0258 13.156 18.0586 13.0447C18.0914 12.9335 18.102 12.8168 18.0898 12.7015L17.9043 10.9454C17.8922 10.8299 17.8574 10.718 17.802 10.616C17.7466 10.514 17.6716 10.4239 17.5814 10.3509C17.4912 10.2779 17.3874 10.2234 17.2761 10.1905C17.1648 10.1576 17.0481 10.147 16.9326 10.1592L4.63486 11.4613C4.51949 11.4735 4.40766 11.5083 4.30576 11.5638C4.20386 11.6192 4.11388 11.6942 4.04095 11.7844C3.96803 11.8747 3.9136 11.9784 3.88076 12.0896C3.84792 12.2009 3.83733 12.3176 3.84957 12.4329L4.03507 14.1899C4.06 14.4225 4.17621 14.6358 4.35822 14.7829C4.54023 14.9299 4.77315 14.9988 5.00586 14.9743ZM23.2052 26.9214L24.2917 19.6648C24.4516 18.6204 24.9789 17.6674 25.7789 16.9772C26.5788 16.2871 27.5988 15.9051 28.6553 15.9H42.0113C43.0681 15.9052 44.0883 16.2874 44.8883 16.9779C45.6883 17.6684 46.2155 18.6219 46.375 19.6665L47.4712 26.9487C48.5962 28.0102 49.5792 29.2127 50.3959 30.5262L49.1443 18.02C49.0166 16.712 48.406 15.4985 47.4317 14.6165C46.4574 13.7345 45.1894 13.2473 43.8752 13.25H26.7915C26.0137 13.2511 25.2458 13.4247 24.5432 13.7583C23.8406 14.0919 23.2207 14.5772 22.7282 15.1792C22.7924 15.3647 22.8362 15.5566 22.8589 15.7516L23.0444 17.5086C23.105 18.0975 22.9666 18.6897 22.6514 19.1908C22.3362 19.6919 21.8622 20.073 21.3051 20.2734L20.2681 30.5536C21.0827 29.2187 22.0703 27.9973 23.2052 26.9214ZM15.0573 51.2183C15.6016 51.163 16.115 50.9388 16.5255 50.5772C16.9361 50.2156 17.2233 49.7346 17.3469 49.2017L12.3958 49.7255C12.6274 50.2216 13.0088 50.6325 13.4863 50.9003C13.9638 51.1681 14.5133 51.2793 15.0573 51.2183ZM22.9128 41.5052C23.0282 41.493 23.14 41.4581 23.2419 41.4027C23.3438 41.3472 23.4338 41.2722 23.5067 41.182C23.5796 41.0918 23.6341 40.9881 23.6669 40.8768C23.6997 40.7655 23.7103 40.6489 23.6981 40.5335L23.5126 38.7766C23.5003 38.6612 23.4655 38.5494 23.4101 38.4475C23.3546 38.3456 23.2796 38.2556 23.1894 38.1827C23.0992 38.1097 22.9955 38.0553 22.8842 38.0225C22.7729 37.9896 22.6563 37.979 22.5409 37.9913L4.97141 39.8463C4.85604 39.8585 4.74421 39.8934 4.64231 39.9488C4.54041 40.0043 4.45043 40.0792 4.3775 40.1695C4.30458 40.2597 4.25015 40.3634 4.21731 40.4747C4.18447 40.5859 4.17388 40.7026 4.18612 40.818L4.37339 42.5767C4.38494 42.6923 4.41933 42.8045 4.47457 42.9067C4.5298 43.009 4.60479 43.0993 4.69517 43.1723C4.78556 43.2453 4.88954 43.2997 5.0011 43.3323C5.11266 43.3648 5.22957 43.3749 5.34506 43.362L22.9128 41.5052Z" fill="#18181B"/>
<path d="M51.209 38.9119C51.0037 35.0589 49.4033 31.4121 46.7067 28.6523C44.0101 25.8925 40.4014 24.2082 36.5541 23.9137C32.7068 23.6192 28.8838 24.7346 25.7985 27.0518C22.7132 29.369 20.5765 32.7297 19.7871 36.5066L22.3602 36.2346C22.7064 36.1978 23.0564 36.2296 23.3903 36.3282C23.7241 36.4268 24.0353 36.5902 24.306 36.809C24.5767 37.0279 24.8016 37.2979 24.9679 37.6037C25.1342 37.9095 25.2387 38.2451 25.2752 38.5913L25.4607 40.3482C25.4975 40.6944 25.4656 41.0444 25.3671 41.3783C25.2685 41.7121 25.1051 42.0233 24.8863 42.294C24.6674 42.5647 24.3974 42.7896 24.0916 42.9559C23.7858 43.1222 23.4502 43.2267 23.104 43.2632L22.9415 43.2809C23.0762 43.5506 23.1629 43.8418 23.1976 44.1413L23.3831 45.8973C23.4391 46.4078 23.3444 46.9235 23.1106 47.3808C22.8769 47.8381 22.5144 48.2169 22.0678 48.4705C22.3936 48.9789 22.7502 49.4668 23.1358 49.9315C23.47 50.3368 23.8893 50.6635 24.3639 50.8885C24.8385 51.1135 25.3568 51.2313 25.8821 51.2336H44.7854C45.303 51.2335 45.8143 51.1207 46.2838 50.903C46.7534 50.6853 47.1698 50.368 47.5043 49.973C50.1029 46.8924 51.4279 42.9362 51.209 38.9119ZM48.6094 39.4888H48.5352C48.3131 39.4895 48.0988 39.4066 47.9351 39.2565C47.7714 39.1064 47.6703 38.9001 47.6518 38.6787C47.3842 35.8433 46.155 33.1847 44.1682 31.1441C42.1815 29.1036 39.5567 27.8037 36.7294 27.4604C36.2659 27.41 35.8 27.3844 35.3337 27.3836C35.0995 27.3836 34.8748 27.2905 34.7091 27.1248C34.5435 26.9592 34.4504 26.7345 34.4504 26.5002C34.4504 26.266 34.5435 26.0413 34.7091 25.8756C34.8748 25.71 35.0995 25.6169 35.3337 25.6169C35.8649 25.6179 36.3957 25.6474 36.9237 25.7052C40.1573 26.0974 43.1595 27.5837 45.4318 29.9175C47.7042 32.2512 49.11 35.2919 49.4158 38.5348C49.4344 38.7676 49.36 38.9984 49.2088 39.1765C49.0577 39.3546 48.8422 39.4656 48.6094 39.4852V39.4888Z" fill="#18181B"/>
<path d="M20.4638 43.5412L8.16519 44.8414C8.04982 44.8537 7.93799 44.8885 7.83609 44.944C7.73419 44.9994 7.64421 45.0744 7.57129 45.1646C7.49836 45.2549 7.44393 45.3586 7.41109 45.4698C7.37826 45.5811 7.36766 45.6977 7.37991 45.8131L7.56541 47.5709C7.59032 47.8038 7.70667 48.0172 7.88887 48.1643C8.07107 48.3114 8.30422 48.3801 8.53707 48.3553L20.8357 47.0551C20.9511 47.0429 21.0629 47.008 21.1648 46.9526C21.2667 46.8971 21.3567 46.8221 21.4296 46.7319C21.5025 46.6417 21.557 46.538 21.5898 46.4267C21.6227 46.3154 21.6333 46.1988 21.621 46.0834L21.4355 44.3273C21.4234 44.2119 21.3886 44.1 21.3332 43.998C21.2778 43.896 21.2029 43.8059 21.1126 43.7329C21.0224 43.6599 20.9186 43.6054 20.8073 43.5725C20.696 43.5396 20.5793 43.5289 20.4638 43.5412Z" fill="#18181B"/>
</svg>
