<svg width="18" height="18" viewBox="0 0 18 18" fill="none" xmlns="http://www.w3.org/2000/svg">
<path d="M16.2008 16.2V10.926C16.2008 8.33405 15.6428 6.35405 12.6188 6.35405C11.1608 6.35405 10.1888 7.14605 9.79278 7.90205H9.75678V6.58805H6.89478V16.2H9.88278V11.43C9.88278 10.17 10.1168 8.96405 11.6648 8.96405C13.1948 8.96405 13.2128 10.386 13.2128 11.502V16.182H16.2008V16.2ZM2.03478 6.58805H5.02278V16.2H2.03478V6.58805ZM3.52878 1.80005C2.57478 1.80005 1.80078 2.57405 1.80078 3.52805C1.80078 4.48205 2.57478 5.27405 3.52878 5.27405C4.48278 5.27405 5.25678 4.48205 5.25678 3.52805C5.25678 2.57405 4.48278 1.80005 3.52878 1.80005Z" fill="white"/>
</svg>
