<svg width="54" height="54" viewBox="0 0 54 54" fill="none" xmlns="http://www.w3.org/2000/svg">
<g clip-path="url(#clip0_494_9120)">
<path d="M8.26109 6.37256H8.25655C8.00502 6.37202 7.75589 6.42131 7.52352 6.51758C7.29115 6.61386 7.08016 6.75521 6.90272 6.93347C6.72182 7.11301 6.57839 7.3267 6.48075 7.56214C6.38312 7.79757 6.33324 8.05006 6.33399 8.30493V37.2805C6.33399 38.343 7.20181 39.2096 8.26873 39.2123C12.7666 39.223 20.3022 40.1605 25.5008 45.6007V15.277C25.5008 14.9168 25.4088 14.5784 25.2351 14.2984C20.9684 7.42711 12.7691 6.38311 8.26109 6.37256ZM47.6676 37.2805V8.30475C47.6676 7.7862 47.4656 7.29911 47.0989 6.93329C46.9214 6.75507 46.7105 6.61375 46.4781 6.51748C46.2458 6.42121 45.9967 6.37189 45.7452 6.37238H45.7405C41.2327 6.38311 33.0334 7.42711 28.7664 14.2984C28.5928 14.5784 28.501 14.9168 28.501 15.277V45.6005C33.6995 40.1603 41.2352 39.2229 45.733 39.2121C46.7998 39.2094 47.6676 38.3429 47.6676 37.2805Z" fill="#18181B"/>
<path d="M52.068 13.0547H50.6669V37.2805C50.6669 39.9934 48.4565 42.2056 45.7394 42.2123C41.9243 42.2214 35.6338 42.9674 31.1786 47.184C38.8838 45.2974 47.0063 46.5238 51.6354 47.5787C51.919 47.6441 52.2137 47.6445 52.4974 47.5798C52.7812 47.5151 53.0466 47.3871 53.2738 47.2052C53.5009 47.0248 53.6843 46.7953 53.81 46.5339C53.9358 46.2725 54.0007 45.986 54 45.6959V14.9868C54.0002 13.9215 53.1333 13.0547 52.068 13.0547ZM3.3331 37.2805V13.0547H1.93201C0.866912 13.0547 0 13.9215 0 14.9868V45.6954C0 46.2863 0.264728 46.8365 0.726184 47.2047C0.953342 47.3866 1.21876 47.5147 1.50251 47.5794C1.78627 47.6441 2.08099 47.6437 2.36455 47.5781C6.99366 46.523 15.1164 45.2969 22.8212 47.1834C18.3662 42.967 12.0757 42.2212 8.26057 42.2121C5.54365 42.2056 3.3331 39.9934 3.3331 37.2805Z" fill="#18181B"/>
</g>
<defs>
<clipPath id="clip0_494_9120">
<rect width="54" height="54" fill="white"/>
</clipPath>
</defs>
</svg>
