<svg width="54" height="54" viewBox="0 0 54 54" fill="none" xmlns="http://www.w3.org/2000/svg">
<g clip-path="url(#clip0_494_9147)">
<path d="M26.9267 36.1094H26.8945C19.7427 36.1094 12.4994 36.8402 5.34549 38.2789L8.86964 47.9641C9.44804 49.5538 10.9733 50.6219 12.665 50.6219H41.1602C42.8479 50.6219 44.372 49.5573 44.9526 47.9725L48.5036 38.2798C41.3217 36.8427 34.0685 36.1116 26.9267 36.1094ZM53.8167 22.257C53.7132 22.061 53.5697 21.8888 53.3954 21.7518C53.2211 21.6147 53.02 21.5158 52.8051 21.4614C48.2426 20.3062 43.6072 19.4716 38.9395 18.9564V15.3176C38.9395 8.73409 33.5834 3.37793 26.9998 3.37793C20.4165 3.37793 15.0603 8.73398 15.0603 15.3176V19.1008C10.8611 19.6156 6.69804 20.3908 2.59505 21.422L1.19723 21.7736C0.982278 21.8276 0.781057 21.9262 0.606593 22.0629C0.432129 22.1996 0.28831 22.3714 0.184442 22.5672C0.0805732 22.763 0.0189704 22.9784 0.00361924 23.1995C-0.0117319 23.4206 0.0195108 23.6425 0.0953256 23.8508L4.19027 35.1045C11.7213 33.5554 19.3567 32.7679 26.8944 32.7679H26.9276C34.457 32.7702 42.1037 33.5583 49.6661 35.1064L53.9033 23.5411C53.9796 23.333 54.0113 23.1111 53.9964 22.8899C53.9814 22.6687 53.9202 22.4531 53.8167 22.257ZM35.7725 18.6562C29.9317 18.1935 24.0622 18.2289 18.2274 18.7619V15.3176C18.2274 10.4804 22.1628 6.54494 27 6.54494C31.8371 6.54494 35.7726 10.4803 35.7726 15.3176V18.6562H35.7725Z" fill="#18181B"/>
</g>
<defs>
<clipPath id="clip0_494_9147">
<rect width="54" height="54" fill="white"/>
</clipPath>
</defs>
</svg>
