<svg width="46" height="46" viewBox="0 0 46 46" fill="none" xmlns="http://www.w3.org/2000/svg">
<path d="M1.34766 35.1289H33.8711C34.616 35.1289 35.2188 34.5261 35.2188 33.7812V9.52344C35.2188 8.77854 34.616 8.17578 33.8711 8.17578H1.34766C0.602762 8.17578 0 8.77854 0 9.52344V33.7812C0 34.5261 0.602762 35.1289 1.34766 35.1289ZM13.5664 37.8242V39.1719C13.5664 39.9154 12.9623 40.5195 12.2188 40.5195H9.52344C8.77854 40.5195 8.17578 41.1223 8.17578 41.8672C8.17578 42.6121 8.77854 43.2148 9.52344 43.2148H25.7852C26.5301 43.2148 27.1328 42.6121 27.1328 41.8672C27.1328 41.1223 26.5301 40.5195 25.7852 40.5195H23C22.2565 40.5195 21.6523 39.9154 21.6523 39.1719V37.8242H13.5664Z" fill="#18181B"/>
<path d="M44.6523 2.78516H31.1758C30.4309 2.78516 29.8281 3.38792 29.8281 4.13281V5.48047H33.8711C36.1005 5.48047 37.9141 7.29405 37.9141 9.52344V33.7812C37.9141 36.0106 36.1005 37.8242 33.8711 37.8242H29.8281V41.8672C29.8281 42.6121 30.4309 43.2148 31.1758 43.2148H44.6523C45.3972 43.2148 46 42.6121 46 41.8672V4.13281C46 3.38792 45.3972 2.78516 44.6523 2.78516ZM41.957 36.4766C41.2128 36.4766 40.6094 35.8732 40.6094 35.1289C40.6094 34.3845 41.2128 33.7812 41.957 33.7812C42.7013 33.7812 43.3047 34.3845 43.3047 35.1289C43.3047 35.8732 42.7013 36.4766 41.957 36.4766ZM41.957 31.0859C41.2128 31.0859 40.6094 30.4825 40.6094 29.7383C40.6094 28.9938 41.2128 28.3906 41.957 28.3906C42.7013 28.3906 43.3047 28.9938 43.3047 29.7383C43.3047 30.4825 42.7013 31.0859 41.957 31.0859Z" fill="#18181B"/>
</svg>
