<svg width="282" height="24" viewBox="0 0 282 24" fill="none" xmlns="http://www.w3.org/2000/svg">
<path d="M3.464 16.828C2 15.657 2 14.771 2 11C2 7.229 2 5.343 3.464 4.172C4.93 3 7.286 3 12 3C16.714 3 19.071 3 20.535 4.172C22 5.343 22 7.229 22 11C22 14.771 22 15.657 20.535 16.828C19.072 18 16.714 18 12 18C9.49 18 8.2 19.738 6 21V17.788C4.906 17.625 4.101 17.338 3.464 16.828Z" stroke="black" stroke-width="1.5" stroke-linecap="round" stroke-linejoin="round"/>
<path d="M270.82 5.57912L269.999 6.40163L269.176 5.57838C267.077 3.47931 263.674 3.47931 261.575 5.57838C259.475 7.67744 259.475 11.0807 261.575 13.1798L269.47 21.0751C269.763 21.368 270.238 21.368 270.531 21.0751L278.432 13.1783C280.526 11.0723 280.53 7.67857 278.431 5.57912C276.328 3.47623 272.923 3.47623 270.82 5.57912ZM277.368 12.1206L270 19.4842L262.635 12.1191C261.122 10.6058 261.122 8.15232 262.635 6.63904C264.148 5.12575 266.602 5.12575 268.115 6.63904L269.473 7.99648C269.771 8.29435 270.255 8.28854 270.546 7.98363L271.881 6.63978C273.398 5.12268 275.853 5.12268 277.37 6.63978C278.884 8.15343 278.881 10.5997 277.368 12.1206Z" fill="#D79253"/>
</svg>
