<svg width="46" height="46" viewBox="0 0 46 46" fill="none" xmlns="http://www.w3.org/2000/svg">
<path d="M33.0625 11.5H33.0706H33.0625ZM43.0846 8.62499H34.9034L35.7048 5.42116L39.1476 4.2487C39.8798 3.99983 40.3156 3.22178 40.1044 2.47788C40.0507 2.29074 39.9596 2.11647 39.8365 1.96563C39.7134 1.8148 39.5609 1.69054 39.3883 1.60039C39.2158 1.51024 39.0267 1.45609 38.8326 1.44121C38.6385 1.42634 38.4433 1.45105 38.2591 1.51385L34.0364 2.95135C33.809 3.0289 33.6047 3.1622 33.4421 3.33908C33.2795 3.51596 33.1638 3.73078 33.1056 3.96389L31.9403 8.62499H20.1654C19.3919 8.62499 18.7279 9.21975 18.6893 9.99331C18.6799 10.1877 18.7101 10.3819 18.778 10.5643C18.846 10.7466 18.9502 10.9133 19.0844 11.0541C19.2187 11.195 19.3801 11.3072 19.559 11.3838C19.7378 11.4604 19.9304 11.5 20.125 11.5H20.3721L20.4619 12.278C20.4831 12.4597 20.5703 12.6273 20.7069 12.7489C20.8436 12.8705 21.0202 12.9376 21.2031 12.9375C24.707 12.9375 27.821 13.9168 30.1983 15.7694C31.5205 16.7882 32.5924 18.0958 33.332 19.5922C33.746 20.434 34.0516 21.3248 34.2412 22.2435C34.279 22.4225 34.385 22.5798 34.5368 22.6819C35.759 23.5112 36.6606 24.7338 37.0918 26.1464C37.5229 27.5591 37.4577 29.0767 36.9069 30.4471C36.8428 30.6057 36.8381 30.7821 36.8934 30.944C37.2117 31.8561 37.3745 32.8152 37.375 33.7812C37.375 35.7883 36.6922 37.7011 35.4523 39.1674C34.7494 40.0042 33.8652 40.67 32.8666 41.1143C32.6939 41.1904 32.558 41.3314 32.4884 41.5069C32.1152 42.479 31.5883 43.3847 30.9278 44.1896C30.9003 44.2223 30.8827 44.2621 30.877 44.3044C30.8713 44.3467 30.8778 44.3898 30.8958 44.4285C30.9137 44.4673 30.9423 44.5001 30.9782 44.5232C31.0141 44.5463 31.0558 44.5587 31.0985 44.5589H35.5197C36.6022 44.5545 37.6438 44.145 38.4394 43.411C39.2351 42.677 39.7272 41.6718 39.8187 40.5932L42.8914 11.5H43.125C43.3197 11.5002 43.5125 11.4609 43.6916 11.3843C43.8706 11.3078 44.0323 11.1957 44.1667 11.0548C44.3011 10.9139 44.4055 10.7472 44.4736 10.5647C44.5416 10.3822 44.5719 10.1878 44.5625 9.99331C44.5248 9.21975 43.8581 8.62499 43.0846 8.62499Z" fill="#18181B"/>
<path d="M9.76512 28.75C10.0486 28.7487 10.3296 28.8036 10.5918 28.9115C10.8539 29.0195 11.0921 29.1783 11.2925 29.3789L12.6859 30.7724C12.7193 30.8058 12.759 30.8323 12.8026 30.8504C12.8462 30.8685 12.893 30.8778 12.9402 30.8778C12.9874 30.8778 13.0342 30.8685 13.0778 30.8504C13.1214 30.8323 13.1611 30.8058 13.1945 30.7724L14.5852 29.3789C14.7856 29.1783 15.0238 29.0195 15.2859 28.9115C15.5481 28.8036 15.8291 28.7487 16.1126 28.75H33.7741C33.8685 28.7509 33.9621 28.7333 34.0497 28.698C34.1372 28.6628 34.217 28.6107 34.2844 28.5446C34.3518 28.4785 34.4056 28.3998 34.4425 28.3129C34.4795 28.2261 34.4991 28.1328 34.5 28.0384V28.0312C34.499 27.2031 34.2125 26.4006 33.6888 25.7591C33.1651 25.1175 32.4362 24.6762 31.625 24.5094C31.5513 21.8419 30.457 19.6093 28.4346 18.0406C26.5641 16.5816 24.0646 15.8125 21.2031 15.8125H14.7344C8.60524 15.8125 4.45356 19.2957 4.3125 24.5094C3.50131 24.6762 2.77243 25.1175 2.24873 25.7591C1.72502 26.4006 1.43851 27.2031 1.4375 28.0312C1.4375 28.2219 1.51323 28.4047 1.64802 28.5395C1.78281 28.6743 1.96563 28.75 2.15625 28.75H9.76512ZM16.7055 31.625C16.6111 31.6249 16.5176 31.6435 16.4304 31.6795C16.3431 31.7156 16.2638 31.7685 16.197 31.8352L14.2079 33.8253C13.8709 34.1621 13.414 34.3514 12.9375 34.3514C12.461 34.3514 12.0041 34.1621 11.6671 33.8253L9.67797 31.8352C9.61117 31.7685 9.53188 31.7156 9.44463 31.6795C9.35737 31.6435 9.26387 31.6249 9.16945 31.625H2.9343C2.59662 31.6235 2.2693 31.7414 2.01018 31.958C1.75107 32.1745 1.57686 32.4757 1.51836 32.8082C1.46439 33.1298 1.43734 33.4552 1.4375 33.7812C1.4375 36.5296 3.3359 38.7685 5.68352 38.8125C5.90184 40.1709 6.43012 41.3982 7.22523 42.3586C8.40129 43.7791 10.111 44.5625 12.0391 44.5625H23.8984C25.8265 44.5625 27.5362 43.7791 28.7123 42.3568C29.5074 41.3964 30.0357 40.1691 30.254 38.8107C32.6016 38.7685 34.5 36.5296 34.5 33.7795C34.5002 33.4534 34.4731 33.128 34.4191 32.8064C34.3603 32.4742 34.1859 32.1735 33.9268 31.9573C33.6677 31.7411 33.3406 31.6234 33.0032 31.625H16.7055Z" fill="#18181B"/>
</svg>
