<svg width="24" height="24" viewBox="0 0 24 24" fill="none" xmlns="http://www.w3.org/2000/svg">
<g id="Group">
<path id="Vector" d="M12.0273 0H11.9727C5.36035 0 0 5.36035 0 11.9727V12.0273C0 18.6397 5.36035 24 11.9727 24H12.0273C18.6397 24 24 18.6397 24 12.0273V11.9727C24 5.36035 18.6397 0 12.0273 0Z" fill="#FF0000"/>
<path id="Vector_2" fill-rule="evenodd" clip-rule="evenodd" d="M10.9047 15.2813C10.8904 15.3309 10.8769 15.373 10.866 15.415C10.2312 17.9022 10.1605 18.4546 9.50803 19.6099C9.19692 20.159 8.84629 20.6795 8.45867 21.1772C8.41494 21.2336 8.37374 21.3059 8.28629 21.2882C8.19044 21.2681 8.18287 21.1814 8.17278 21.1049C8.06852 20.349 8.0105 19.5914 8.03572 18.828C8.06852 17.8341 8.19128 17.4927 9.47272 12.1046C9.49121 12.0222 9.47019 11.9541 9.44328 11.8801C9.13638 11.0527 9.07584 10.2127 9.34407 9.36181C9.92424 7.52374 12.0078 7.38332 12.3719 8.89935C12.5964 9.83688 12.0028 11.0645 11.5471 12.879C11.1695 14.3757 12.9319 15.4402 14.4379 14.3471C15.8269 13.3398 16.3659 10.9249 16.2633 9.21298C16.0615 5.80003 12.3189 5.06261 9.94527 6.16159C7.22348 7.42032 6.60462 10.7938 7.83393 12.3358C7.98948 12.5318 8.28293 12.652 8.23164 12.8504C8.1526 13.159 8.08281 13.4701 7.99704 13.777C7.93314 14.0058 7.56906 14.089 7.33783 13.9948C6.88462 13.8115 6.50708 13.5231 6.20102 13.1431C5.15754 11.8507 4.85905 9.29454 6.23886 7.13023C7.7675 4.733 10.6112 3.76268 13.2077 4.05697C16.3087 4.40928 18.2687 6.52819 18.6353 8.93215C18.8026 10.0269 18.6824 12.7268 17.1453 14.6355C15.3771 16.8284 12.5107 16.9739 11.188 15.6277C11.0863 15.5243 11.0047 15.4041 10.9047 15.2805V15.2813Z" fill="white"/>
</g>
</svg>
