<svg width="32" height="32" viewBox="0 0 32 32" fill="none" xmlns="http://www.w3.org/2000/svg">
<g id="prime:google">
<path id="Vector" d="M26.3467 14.3601L26.2267 13.8934H16.3067V18.1068H22.24C21.9089 19.3924 21.1563 20.5299 20.1023 21.3373C19.0484 22.1446 17.7542 22.5752 16.4267 22.5601C14.6945 22.5458 13.0301 21.8848 11.76 20.7068C11.1357 20.0914 10.6388 19.3589 10.2979 18.5513C9.95705 17.7437 9.77878 16.8767 9.77335 16.0001C9.7935 14.2394 10.4906 12.554 11.72 11.2934C12.9722 10.1073 14.6353 9.45251 16.36 9.46678C17.8372 9.47814 19.2595 10.0281 20.36 11.0134L23.2933 8.00011C21.36 6.27525 18.8576 5.32555 16.2667 5.33344C14.8414 5.32498 13.4284 5.59733 12.1084 6.13495C10.7884 6.67256 9.58715 7.46492 8.57335 8.46678C6.64495 10.4698 5.55771 13.1358 5.53538 15.9162C5.51306 18.6966 6.55736 21.3797 8.45335 23.4134C9.50381 24.46 10.7523 25.2867 12.1259 25.8453C13.4995 26.4039 14.9706 26.6832 16.4533 26.6668C17.7979 26.6768 19.1306 26.4137 20.3705 25.8934C21.6104 25.3731 22.7318 24.6066 23.6667 23.6401C25.5013 21.6229 26.4937 18.9796 26.44 16.2534C26.4544 15.6209 26.4232 14.9882 26.3467 14.3601Z" fill="#053E57"/>
</g>
</svg>
