<svg width="24" height="24" viewBox="0 0 24 24" fill="none" xmlns="http://www.w3.org/2000/svg">
<g id="Group">
<path id="Vector" d="M12.0273 0H11.9727C5.36035 0 0 5.36035 0 11.9727V12.0273C0 18.6397 5.36035 24 11.9727 24H12.0273C18.6397 24 24 18.6397 24 12.0273V11.9727C24 5.36035 18.6397 0 12.0273 0Z" fill="black"/>
<g id="Group_2">
<path id="Vector_2" d="M18.0852 9.53082V11.7969C17.6891 11.7582 17.1745 11.6682 16.6053 11.4597C15.862 11.1873 15.3087 10.8148 14.9463 10.5264V15.1064L14.9371 15.0921C14.9429 15.1829 14.9463 15.2754 14.9463 15.3687C14.9463 17.6432 13.0956 19.4947 10.8203 19.4947C8.54502 19.4947 6.69434 17.6432 6.69434 15.3687C6.69434 13.0943 8.54502 11.2419 10.8203 11.2419C11.0431 11.2419 11.2618 11.2596 11.4753 11.2941V13.5273C11.2702 13.4542 11.0499 13.4146 10.8203 13.4146C9.74321 13.4146 8.86622 14.2908 8.86622 15.3687C8.86622 16.4467 9.74321 17.3229 10.8203 17.3229C11.8974 17.3229 12.7744 16.4459 12.7744 15.3687C12.7744 15.3284 12.7736 15.288 12.7711 15.2477V6.34741H15.0354C15.0438 6.53912 15.0514 6.73251 15.0598 6.92422C15.075 7.30176 15.2095 7.66416 15.4441 7.96098C15.719 8.30992 16.1252 8.71521 16.6952 9.03893C17.2292 9.34163 17.7303 9.47112 18.0852 9.5325V9.53082Z" fill="#FF004F"/>
<path id="Vector_3" d="M17.3068 7.69195V9.95801C16.9108 9.91933 16.3962 9.82936 15.827 9.62083C15.0837 9.3484 14.5304 8.97591 14.168 8.6875V13.2675L14.1587 13.2532C14.1646 13.3441 14.168 13.4365 14.168 13.5299C14.168 15.8043 12.3173 17.6559 10.042 17.6559C7.7667 17.6559 5.91602 15.8043 5.91602 13.5299C5.91602 11.2554 7.7667 9.40305 10.042 9.40305C10.2648 9.40305 10.4834 9.42071 10.697 9.45519V11.6884C10.4918 11.6153 10.2715 11.5758 10.042 11.5758C8.96489 11.5758 8.08789 12.4519 8.08789 13.5299C8.08789 14.6078 8.96489 15.484 10.042 15.484C11.1191 15.484 11.9961 14.607 11.9961 13.5299C11.9961 13.4895 11.9953 13.4492 11.9927 13.4088V4.50854H14.2571C14.2655 4.70026 14.2731 4.89365 14.2815 5.08536C14.2966 5.46289 14.4312 5.8253 14.6658 6.12211C14.9407 6.47106 15.3468 6.87634 15.9169 7.20006C16.4509 7.50192 16.952 7.63225 17.3068 7.69363V7.69195Z" fill="#00F7EF"/>
<path id="Vector_4" d="M17.8019 8.68243V10.9485C17.4059 10.9098 16.8913 10.8198 16.3221 10.6113C15.5788 10.3389 15.0255 9.96639 14.6631 9.67798V14.258L14.6539 14.2437C14.6597 14.3345 14.6631 14.427 14.6631 14.5204C14.6631 16.7948 12.8124 18.6463 10.5371 18.6463C8.26181 18.6463 6.41113 16.7948 6.41113 14.5204C6.41113 12.2459 8.26181 10.3935 10.5371 10.3935C10.7599 10.3935 10.9786 10.4112 11.1921 10.4457V12.6789C10.987 12.6058 10.7667 12.5663 10.5371 12.5663C9.46001 12.5663 8.58301 13.4424 8.58301 14.5204C8.58301 15.5983 9.46001 16.4745 10.5371 16.4745C11.6142 16.4745 12.4912 15.5975 12.4912 14.5204C12.4912 14.48 12.4904 14.4396 12.4879 14.3993V5.49902H14.7522C14.7606 5.69073 14.7682 5.88413 14.7766 6.07584C14.7918 6.45337 14.9263 6.81577 15.1609 7.11259C15.4358 7.46154 15.842 7.86682 16.412 8.19054C16.946 8.4924 17.4471 8.62273 17.8019 8.68411V8.68243Z" fill="white"/>
</g>
</g>
</svg>
