<svg width="24" height="24" viewBox="0 0 24 24" fill="none" xmlns="http://www.w3.org/2000/svg">
<g id="Group">
<path id="Vector" d="M12.0273 0H11.9727C5.36035 0 0 5.36035 0 11.9727V12.0273C0 18.6397 5.36035 24 11.9727 24H12.0273C18.6396 24 24 18.6397 24 12.0273V11.9727C24 5.36035 18.6396 0 12.0273 0Z" fill="#2188F7"/>
<path id="Vector_2" d="M19.0075 7.65583C18.6788 7.98796 18.223 8.19396 17.7177 8.19396C17.6529 8.19396 17.5899 8.1906 17.5268 8.18387C18.054 7.86772 18.461 7.37247 18.6636 6.7822C18.6636 6.7822 18.6645 6.7822 18.6645 6.78136C18.6931 6.70232 18.7166 6.62244 18.7351 6.54004C18.318 6.98568 17.748 7.28754 17.1081 7.35985C17.0097 7.37163 16.9096 7.37751 16.8096 7.37751C16.7776 7.37751 16.7465 7.37667 16.7162 7.37499C16.5002 7.14796 16.242 6.95961 15.9561 6.82172C15.6375 6.66616 15.2809 6.57451 14.9051 6.56274C14.874 6.56106 14.8437 6.56022 14.8118 6.56022C14.4931 6.56022 14.187 6.61655 13.9045 6.72082C13.8322 6.74688 13.7616 6.77631 13.6926 6.80995C12.7971 7.22952 12.1774 8.14015 12.1774 9.19456C12.1774 9.41065 12.2035 9.6217 12.2531 9.82266C11.979 9.81173 11.7074 9.78567 11.4408 9.74531C11.3551 9.73185 11.2701 9.71672 11.1852 9.70074C10.5058 9.57462 9.85754 9.35768 9.25551 9.06171C8.71653 8.79853 8.21455 8.47312 7.75714 8.09475C7.37288 7.77775 7.02141 7.4246 6.70693 7.03781C6.69348 7.02184 6.68002 7.00418 6.66657 6.9882C6.64807 7.01595 6.63125 7.04454 6.61612 7.07397C6.39666 7.45823 6.27222 7.90219 6.27222 8.37643C6.27222 8.39072 6.27222 8.4067 6.27306 8.42099C6.27811 8.77582 6.35378 9.11384 6.48831 9.42159C6.54549 9.5578 6.61528 9.68645 6.69516 9.80921C6.9306 10.1716 7.2518 10.4735 7.63186 10.682C7.64951 10.6929 7.66632 10.7022 7.68482 10.7106C7.65791 10.7156 7.62932 10.7207 7.60158 10.7232C7.52338 10.7333 7.4435 10.7383 7.36278 10.7383C6.95834 10.7383 6.58249 10.6122 6.27474 10.397C6.27306 10.4197 6.27306 10.4424 6.27306 10.4659C6.27306 11.2185 6.58837 11.897 7.09372 12.3754C7.48723 12.7505 7.99593 13.0036 8.56097 13.0767C8.35749 13.1515 8.13803 13.1911 7.90848 13.1911C7.66044 13.1911 7.42332 13.144 7.20639 13.0574C7.53011 14.1092 8.49455 14.8803 9.64481 14.9156C8.94271 15.6455 7.95558 16.0987 6.86417 16.0987C6.18562 16.0987 5.54741 15.9229 4.99414 15.616C6.3235 16.7663 8.05648 17.4608 9.95256 17.4608C14.1425 17.4608 17.5386 14.0647 17.5386 9.8748C17.5386 9.64441 17.5285 9.4157 17.5075 9.19036C18.2003 8.91708 18.7502 8.35709 19.0101 7.65583H19.0075Z" fill="white"/>
</g>
</svg>
