<svg width="1440" height="750" viewBox="0 0 1440 750" fill="none" xmlns="http://www.w3.org/2000/svg">
<g filter="url(#filter0_di_1005_5197)">
<path d="M176 130C97.1962 98.1754 0 2 0 2V746H1440V278C1440 278 1274.28 222.657 1164 210C994.266 190.52 891.794 294.587 728 246C636.206 218.771 603.866 156.985 512 130C386.103 93.0188 297.669 179.136 176 130Z" fill="url(#paint0_linear_1005_5197)"/>
<path d="M176 130C97.1962 98.1754 0 2 0 2V746H1440V278C1440 278 1274.28 222.657 1164 210C994.266 190.52 891.794 294.587 728 246C636.206 218.771 603.866 156.985 512 130C386.103 93.0188 297.669 179.136 176 130Z" stroke="white"/>
</g>
<defs>
<filter id="filter0_di_1005_5197" x="-6.5" y="0.801758" width="1461" height="765.698" filterUnits="userSpaceOnUse" color-interpolation-filters="sRGB">
<feFlood flood-opacity="0" result="BackgroundImageFix"/>
<feColorMatrix in="SourceAlpha" type="matrix" values="0 0 0 0 0 0 0 0 0 0 0 0 0 0 0 0 0 0 127 0" result="hardAlpha"/>
<feOffset dx="4" dy="10"/>
<feGaussianBlur stdDeviation="5"/>
<feComposite in2="hardAlpha" operator="out"/>
<feColorMatrix type="matrix" values="0 0 0 0 0.396078 0 0 0 0 0.356863 0 0 0 0 0.615686 0 0 0 1 0"/>
<feBlend mode="normal" in2="BackgroundImageFix" result="effect1_dropShadow_1005_5197"/>
<feBlend mode="normal" in="SourceGraphic" in2="effect1_dropShadow_1005_5197" result="shape"/>
<feColorMatrix in="SourceAlpha" type="matrix" values="0 0 0 0 0 0 0 0 0 0 0 0 0 0 0 0 0 0 127 0" result="hardAlpha"/>
<feOffset dy="4"/>
<feGaussianBlur stdDeviation="2"/>
<feComposite in2="hardAlpha" operator="arithmetic" k2="-1" k3="1"/>
<feColorMatrix type="matrix" values="0 0 0 0 0 0 0 0 0 0 0 0 0 0 0 0 0 0 0.25 0"/>
<feBlend mode="normal" in2="shape" result="effect2_innerShadow_1005_5197"/>
</filter>
<linearGradient id="paint0_linear_1005_5197" x1="-34" y1="76" x2="1382" y2="788" gradientUnits="userSpaceOnUse">
<stop offset="0.78" stop-color="#655B9D"/>
</linearGradient>
</defs>
</svg>
