<svg width="23" height="9" viewBox="0 0 23 9" fill="none" xmlns="http://www.w3.org/2000/svg">
<mask id="path-1-inside-1_1005_8742" fill="white">
<path d="M22.627 4.73171L13.9082 8.52107C13.8173 8.56057 13.694 8.58276 13.5655 8.58276C13.437 8.58276 13.3137 8.56057 13.2228 8.52107C13.1319 8.48157 13.0809 8.42799 13.0809 8.37213C13.0809 8.31626 13.1319 8.26269 13.2228 8.22318L21.1145 4.79328H0.97176C0.843296 4.79328 0.720093 4.7711 0.629255 4.73162C0.538417 4.69214 0.487385 4.6386 0.487385 4.58276C0.487385 4.52693 0.538417 4.47338 0.629255 4.4339C0.720093 4.39442 0.843296 4.37224 0.97176 4.37224H21.1145L13.2228 0.942344C13.1319 0.902842 13.0809 0.849265 13.0809 0.793401C13.0809 0.737536 13.1319 0.68396 13.2228 0.644458C13.3137 0.604956 13.437 0.582764 13.5655 0.582764C13.694 0.582764 13.8173 0.604956 13.9082 0.644458L22.627 4.43382C22.672 4.45337 22.7077 4.47659 22.7321 4.50215C22.7565 4.5277 22.769 4.5551 22.769 4.58276C22.769 4.61043 22.7565 4.63782 22.7321 4.66338C22.7077 4.68894 22.672 4.71216 22.627 4.73171Z"/>
</mask>
<path d="M22.627 4.73171L13.9082 8.52107C13.8173 8.56057 13.694 8.58276 13.5655 8.58276C13.437 8.58276 13.3137 8.56057 13.2228 8.52107C13.1319 8.48157 13.0809 8.42799 13.0809 8.37213C13.0809 8.31626 13.1319 8.26269 13.2228 8.22318L21.1145 4.79328H0.97176C0.843296 4.79328 0.720093 4.7711 0.629255 4.73162C0.538417 4.69214 0.487385 4.6386 0.487385 4.58276C0.487385 4.52693 0.538417 4.47338 0.629255 4.4339C0.720093 4.39442 0.843296 4.37224 0.97176 4.37224H21.1145L13.2228 0.942344C13.1319 0.902842 13.0809 0.849265 13.0809 0.793401C13.0809 0.737536 13.1319 0.68396 13.2228 0.644458C13.3137 0.604956 13.437 0.582764 13.5655 0.582764C13.694 0.582764 13.8173 0.604956 13.9082 0.644458L22.627 4.43382C22.672 4.45337 22.7077 4.47659 22.7321 4.50215C22.7565 4.5277 22.769 4.5551 22.769 4.58276C22.769 4.61043 22.7565 4.63782 22.7321 4.66338C22.7077 4.68894 22.672 4.71216 22.627 4.73171Z" fill="#F4C300"/>
<path d="M22.627 4.73171L21.4323 1.97985L21.4312 1.98034L22.627 4.73171ZM13.9082 8.52107L15.104 11.2724L13.9082 8.52107ZM13.5655 8.58276V5.58276V8.58276ZM13.0809 8.37213L16.0809 8.37213L13.0809 8.37213ZM13.2228 8.22318L12.027 5.47181L13.2228 8.22318ZM21.1145 4.79328L22.3103 7.54466L21.1145 1.79328V4.79328ZM21.1145 4.37224V7.37224L22.3103 1.62087L21.1145 4.37224ZM13.2228 0.942344L12.027 3.69372L13.2228 0.942344ZM13.0809 0.793401L10.0809 0.793401L13.0809 0.793401ZM13.5655 0.582764V3.58276V0.582764ZM13.9082 0.644458L15.104 -2.10691L13.9082 0.644458ZM22.627 4.43382L21.4311 7.18519L21.4323 7.18568L22.627 4.43382ZM21.4312 1.98034L12.7124 5.7697L15.104 11.2724L23.8228 7.48308L21.4312 1.98034ZM12.7124 5.7697C12.9218 5.67869 13.0991 5.63586 13.2194 5.61419C13.346 5.59142 13.4613 5.58276 13.5655 5.58276V11.5828C13.9886 11.5828 14.5416 11.5169 15.104 11.2724L12.7124 5.7697ZM13.5655 5.58276C13.6697 5.58276 13.7851 5.59142 13.9116 5.61419C14.0319 5.63586 14.2092 5.67869 14.4186 5.7697L12.027 11.2724C12.5894 11.5169 13.1424 11.5828 13.5655 11.5828V5.58276ZM14.4186 5.7697C14.6112 5.85338 14.9539 6.03095 15.2895 6.38301C15.6379 6.7486 16.0809 7.42601 16.0809 8.37213L10.0809 8.37213C10.0809 10.3643 11.7393 11.1474 12.027 11.2724L14.4186 5.7697ZM16.0809 8.37213C16.0809 9.31824 15.6379 9.99565 15.2895 10.3612C14.9539 10.7133 14.6112 10.8909 14.4186 10.9746L12.027 5.47181C11.7393 5.59684 10.0809 6.37998 10.0809 8.37213L16.0809 8.37213ZM14.4186 10.9746L22.3103 7.54466L19.9187 2.04191L12.027 5.47181L14.4186 10.9746ZM21.1145 1.79328H0.97176V7.79328H21.1145V1.79328ZM0.97176 1.79328C1.076 1.79328 1.19137 1.80194 1.31793 1.82472C1.4383 1.84639 1.61565 1.88924 1.82506 1.98025L-0.566552 7.483C-0.00418785 7.72741 0.548758 7.79328 0.97176 7.79328V1.79328ZM1.82506 1.98025C2.01762 2.06394 2.3604 2.24153 2.69595 2.59361C3.04439 2.95921 3.48738 3.63663 3.48738 4.58276H-2.51262C-2.51262 6.57488 -0.854171 7.35799 -0.566552 7.483L1.82506 1.98025ZM3.48738 4.58276C3.48738 5.52889 3.04439 6.20632 2.69595 6.57192C2.3604 6.924 2.01762 7.10158 1.82506 7.18528L-0.566552 1.68253C-0.854171 1.80754 -2.51262 2.59065 -2.51262 4.58276H3.48738ZM1.82506 7.18528C1.61565 7.27629 1.4383 7.31914 1.31793 7.34081C1.19137 7.36359 1.076 7.37224 0.97176 7.37224V1.37224C0.548758 1.37224 -0.00418785 1.43812 -0.566552 1.68253L1.82506 7.18528ZM0.97176 7.37224H21.1145V1.37224H0.97176V7.37224ZM22.3103 1.62087L14.4186 -1.80903L12.027 3.69372L19.9187 7.12362L22.3103 1.62087ZM14.4186 -1.80903C14.6112 -1.72535 14.9539 -1.54778 15.2895 -1.19571C15.6379 -0.830125 16.0809 -0.152717 16.0809 0.793401L10.0809 0.793401C10.0809 2.78555 11.7393 3.56869 12.027 3.69372L14.4186 -1.80903ZM16.0809 0.793401C16.0809 1.73952 15.6379 2.41693 15.2894 2.78252C14.9539 3.13458 14.6112 3.31215 14.4186 3.39583L12.027 -2.10691C11.7393 -1.98189 10.0809 -1.19875 10.0809 0.793401L16.0809 0.793401ZM14.4186 3.39583C14.2092 3.48683 14.0319 3.52967 13.9116 3.55133C13.7851 3.57411 13.6697 3.58276 13.5655 3.58276V-2.41724C13.1424 -2.41724 12.5894 -2.35135 12.027 -2.10691L14.4186 3.39583ZM13.5655 3.58276C13.4613 3.58276 13.346 3.57411 13.2194 3.55133C13.0991 3.52967 12.9218 3.48683 12.7124 3.39583L15.104 -2.10691C14.5416 -2.35135 13.9886 -2.41724 13.5655 -2.41724V3.58276ZM12.7124 3.39583L21.4311 7.18519L23.8228 1.68245L15.104 -2.10691L12.7124 3.39583ZM21.4323 7.18568C21.2434 7.10368 20.8989 6.92677 20.5612 6.57272L24.903 2.43157C24.5165 2.02641 24.1006 1.80306 23.8216 1.68196L21.4323 7.18568ZM20.5612 6.57272C20.2066 6.20094 19.769 5.5228 19.769 4.58276H25.769C25.769 3.5874 25.3063 2.85447 24.903 2.43157L20.5612 6.57272ZM19.769 4.58276C19.769 3.64273 20.2066 2.96459 20.5612 2.59281L24.903 6.73395C25.3063 6.31106 25.769 5.57813 25.769 4.58276H19.769ZM20.5612 2.59281C20.8989 2.23876 21.2434 2.06185 21.4323 1.97985L23.8216 7.48356C24.1006 7.36246 24.5165 7.13911 24.903 6.73395L20.5612 2.59281Z" fill="#F1C038" mask="url(#path-1-inside-1_1005_8742)"/>
</svg>
