<svg width="1440" height="605" viewBox="0 0 1440 605" fill="none" xmlns="http://www.w3.org/2000/svg">
<g filter="url(#filter0_d_494_8953)">
<path fill-rule="evenodd" clip-rule="evenodd" d="M1440 585L1380 564.38C1320 501.56 1200 292.16 1080 271.22C960 250.28 902 327.203 782 327.203C662 327.203 547.3 203.924 427.3 141.104C307.3 78.2841 119 172.309 60 172.309L-3.60786e-05 172.309L-5.12298e-05 -0.999996L59.9999 -1C120 -1.00001 240 -1.00002 360 -1.00003C480 -1.00004 600 -1.00005 720 -1.00006C840 -1.00007 960 -1.00008 1080 -1.00009C1200 -1.0001 1320 -1.00011 1380 -1.00012L1440 -1.00012L1440 585Z" fill="#A08AFF"/>
<path fill-rule="evenodd" clip-rule="evenodd" d="M1440 585L1380 564.38C1320 501.56 1200 292.16 1080 271.22C960 250.28 902 327.203 782 327.203C662 327.203 547.3 203.924 427.3 141.104C307.3 78.2841 119 172.309 60 172.309L-3.60786e-05 172.309L-5.12298e-05 -0.999996L59.9999 -1C120 -1.00001 240 -1.00002 360 -1.00003C480 -1.00004 600 -1.00005 720 -1.00006C840 -1.00007 960 -1.00008 1080 -1.00009C1200 -1.0001 1320 -1.00011 1380 -1.00012L1440 -1.00012L1440 585Z" stroke="black"/>
</g>
<defs>
<filter id="filter0_d_494_8953" x="-10.0001" y="-1" width="1460" height="606" filterUnits="userSpaceOnUse" color-interpolation-filters="sRGB">
<feFlood flood-opacity="0" result="BackgroundImageFix"/>
<feColorMatrix in="SourceAlpha" type="matrix" values="0 0 0 0 0 0 0 0 0 0 0 0 0 0 0 0 0 0 127 0" result="hardAlpha"/>
<feOffset dy="10"/>
<feGaussianBlur stdDeviation="5"/>
<feColorMatrix type="matrix" values="0 0 0 0 0 0 0 0 0 0 0 0 0 0 0 0 0 0 0.15 0"/>
<feBlend mode="normal" in2="BackgroundImageFix" result="effect1_dropShadow_494_8953"/>
<feBlend mode="normal" in="SourceGraphic" in2="effect1_dropShadow_494_8953" result="shape"/>
</filter>
</defs>
</svg>
