<svg width="24" height="24" viewBox="0 0 24 24" fill="none" xmlns="http://www.w3.org/2000/svg">
<g id="Group">
<path id="Vector" d="M24 12C24 5.37258 18.6274 0 12 0C5.37259 0 0 5.37258 0 12C0 18.6274 5.37259 24 12 24C18.6274 24 24 18.6274 24 12Z" fill="#FF0209"/>
<g id="Group_2">
<path id="Vector_2" d="M17.0941 17.3149C16.7365 17.3537 16.3706 17.3604 16.0198 17.3596C13.2835 17.3571 10.5472 17.3545 7.81177 17.3529C6.95083 17.3529 6.01316 17.325 5.34785 16.7778C4.59822 16.1597 4.44223 15.0879 4.38152 14.1182C4.29719 12.7893 4.29045 11.4562 4.35959 10.1264C4.39754 9.39614 4.46415 8.6482 4.77867 7.98711C5.00466 7.51237 5.38158 7.0857 5.86391 6.8614C6.42466 6.60084 7.01155 6.64722 7.6153 6.64637C9.0606 6.64469 10.5059 6.64384 11.9512 6.64216C13.4538 6.64047 14.9573 6.63963 16.4599 6.63794C17.1699 6.63794 17.9322 6.65228 18.5115 7.06293C19.2595 7.59248 19.4627 8.60014 19.5563 9.51167C19.7291 11.1905 19.7317 12.8871 19.563 14.566C19.493 15.2583 19.3767 15.9902 18.9205 16.5155C18.4685 17.0366 17.7981 17.2373 17.0949 17.3141L17.0941 17.3149Z" fill="white"/>
<path id="Vector_3" d="M14.447 11.9999L10.3691 9.64478V14.3542L14.447 11.9999Z" fill="#FF0209"/>
</g>
</g>
</svg>
