<svg width="18" height="18" viewBox="0 0 18 18" fill="none" xmlns="http://www.w3.org/2000/svg">
<g id="Frame">
<g id="Group">
<path id="Vector" d="M8.99905 6.24902C7.48105 6.24902 6.24805 7.48202 6.24805 9.00002C6.24805 10.518 7.48105 11.754 8.99905 11.754C10.517 11.754 11.753 10.518 11.753 9.00002C11.753 7.48202 10.517 6.24902 8.99905 6.24902Z" fill="white"/>
<path id="Vector_2" d="M13.152 1.5H4.848C3.003 1.5 1.5 3.003 1.5 4.848V13.152C1.5 15 3.003 16.5 4.848 16.5H13.152C15 16.5 16.5 15 16.5 13.152V4.848C16.5 3.003 15 1.5 13.152 1.5ZM9 13.86C6.321 13.86 4.14 11.679 4.14 9C4.14 6.321 6.321 4.143 9 4.143C11.679 4.143 13.86 6.321 13.86 9C13.86 11.679 11.679 13.86 9 13.86ZM13.962 5.025C13.395 5.025 12.933 4.566 12.933 3.999C12.933 3.432 13.395 2.97 13.962 2.97C14.529 2.97 14.991 3.432 14.991 3.999C14.991 4.566 14.529 5.025 13.962 5.025Z" fill="white"/>
</g>
</g>
</svg>
