<svg width="18" height="18" viewBox="0 0 18 18" fill="none" xmlns="http://www.w3.org/2000/svg">
<g id="Frame">
<g id="Group">
<path id="Vector" d="M16.887 4.51367C15.8598 4.51367 14.9119 4.17336 14.1508 3.59926C13.2779 2.94113 12.6507 1.97574 12.4292 0.863047C12.3737 0.58327 12.3445 0.2989 12.342 0.0136719H9.40752V8.03211L9.40401 12.4242C9.40401 13.5984 8.63936 14.594 7.5794 14.9442C7.2619 15.0492 6.9275 15.0935 6.59362 15.075C6.15205 15.0507 5.73826 14.9175 5.37862 14.7023C4.61326 14.2446 4.09436 13.4142 4.0803 12.4643C4.05815 10.9796 5.25838 9.76918 6.74198 9.76918C7.03483 9.76918 7.31608 9.81699 7.5794 9.90383V6.92434C7.30166 6.8832 7.01901 6.86176 6.73319 6.86176C5.10932 6.86176 3.59057 7.53676 2.50494 8.75281C1.6844 9.6718 1.19221 10.8443 1.11627 12.0737C1.01678 13.6887 1.60776 15.224 2.75385 16.3568C2.92225 16.523 3.09908 16.6774 3.28401 16.8198C4.26662 17.576 5.46791 17.9859 6.73319 17.9859C7.01901 17.9859 7.30166 17.9648 7.5794 17.9237C8.76135 17.7486 9.8519 17.2075 10.7125 16.3568C11.77 15.3116 12.3543 13.9239 12.3606 12.447L12.3455 5.88828C12.8512 6.27833 13.4052 6.60139 13.9937 6.84945C14.9144 7.23793 15.8907 7.4348 16.8955 7.43445V4.51297C16.8962 4.51367 16.8877 4.51367 16.887 4.51367Z" fill="white"/>
</g>
</g>
</svg>
