<svg width="147" height="146" viewBox="0 0 147 146" fill="none" xmlns="http://www.w3.org/2000/svg">
<path id="Star 6" d="M64.8582 3.96979C69.578 -0.929125 77.422 -0.929125 82.1418 3.96979L84.8363 6.76654C87.9219 9.96923 92.5257 11.2028 96.7992 9.972L100.531 8.89718C107.068 7.01449 113.861 10.9365 115.499 17.539L116.434 21.3083C117.505 25.6247 120.875 28.9949 125.192 30.0658L128.961 31.0009C135.563 32.6389 139.486 39.432 137.603 45.9689L136.528 49.7008C135.297 53.9743 136.531 58.5781 139.733 61.6637L142.53 64.3582C147.429 69.078 147.429 76.922 142.53 81.6418L139.733 84.3363C136.531 87.4219 135.297 92.0257 136.528 96.2992L137.603 100.031C139.486 106.568 135.563 113.361 128.961 114.999L125.192 115.934C120.875 117.005 117.505 120.375 116.434 124.692L115.499 128.461C113.861 135.063 107.068 138.986 100.531 137.103L96.7992 136.028C92.5257 134.797 87.9219 136.031 84.8363 139.233L82.1418 142.03C77.422 146.929 69.578 146.929 64.8582 142.03L62.1637 139.233C59.0781 136.031 54.4743 134.797 50.2008 136.028L46.4689 137.103C39.932 138.986 33.1389 135.063 31.5009 128.461L30.5658 124.692C29.4949 120.375 26.1247 117.005 21.8083 115.934L18.039 114.999C11.4365 113.361 7.51449 106.568 9.39718 100.031L10.472 96.2992C11.7028 92.0257 10.4692 87.4219 7.26654 84.3363L4.46979 81.6418C-0.429125 76.922 -0.429125 69.078 4.46979 64.3582L7.26654 61.6637C10.4692 58.5781 11.7028 53.9743 10.472 49.7008L9.39718 45.9689C7.51449 39.432 11.4365 32.6389 18.039 31.0009L21.8083 30.0658C26.1247 28.9949 29.4949 25.6247 30.5658 21.3083L31.5009 17.539C33.1389 10.9365 39.932 7.01449 46.4689 8.89718L50.2008 9.972C54.4743 11.2028 59.0781 9.96923 62.1637 6.76654L64.8582 3.96979Z" fill="#F4C300"/>
</svg>
