<svg width="71" height="70" viewBox="0 0 71 70" fill="none" xmlns="http://www.w3.org/2000/svg">
<g id="tabler:bookmark-ai">
<rect x="2.5" y="2" width="66" height="66" rx="10" stroke="#F4C300" stroke-width="4"/>
<path id="Vector" d="M29.725 53.4333L18 61.25V20.4167C18 17.3225 19.2292 14.355 21.4171 12.1671C23.605 9.97916 26.5725 8.75 29.6667 8.75H41.3333C44.4275 8.75 47.395 9.97916 49.5829 12.1671C51.7708 14.355 53 17.3225 53 20.4167V33.5417M41.3333 61.25V49.5833C41.3333 48.0362 41.9479 46.5525 43.0419 45.4585C44.1358 44.3646 45.6196 43.75 47.1667 43.75C48.7138 43.75 50.1975 44.3646 51.2915 45.4585C52.3854 46.5525 53 48.0362 53 49.5833V61.25M41.3333 55.4167H53M61.75 43.75V61.25" stroke="#F6CE30" stroke-width="5.83333" stroke-linecap="round" stroke-linejoin="round"/>
</g>
</svg>
